<?xml version="1.0" encoding="utf-8"?>
<!-- Generator: Adobe Illustrator 21.0.0, SVG Export Plug-In . SVG Version: 6.00 Build 0)  -->
<svg version="1.1" id="Layer_1" xmlns="http://www.w3.org/2000/svg" xmlns:xlink="http://www.w3.org/1999/xlink" x="0px" y="0px"
	 viewBox="0 0 1920 1080" style="enable-background:new 0 0 1920 1080;" xml:space="preserve">
<style type="text/css">
	.st0{fill:#252525;}
</style>
<path class="st0" d="M958,220.5L958,220.5c-16.3,0-29.5-13.2-29.5-29.5v-50c0-16.3,13.2-29.5,29.5-29.5l0,0
	c16.3,0,29.5,13.2,29.5,29.5v50C987.5,207.3,974.3,220.5,958,220.5z"/>
<path class="st0" d="M958,874.5L958,874.5c-16.3,0-29.5-13.2-29.5-29.5v-50c0-16.3,13.2-29.5,29.5-29.5l0,0
	c16.3,0,29.5,13.2,29.5,29.5v50C987.5,861.3,974.3,874.5,958,874.5z"/>
<g>
	<path class="st0" d="M781.6,721.2c0-6.8,2.7-13.7,8-20.7c5.4-7,11.1-10.6,17.3-10.6c4.5,0,10.1,3.7,16.9,11l23.7,24.5
		c8.5,9,21.8,17.1,40.2,24.1c18.3,7.1,39.6,10.6,63.8,10.6c40,0,71-10,93-30s33-48.9,33-86.7c0-25.4-5.2-46.9-15.6-64.7
		s-23.8-31.4-40.2-41c-15.8-10.1-33.8-19.2-54.1-27.1l-60.9-23.7c-20.3-7.9-38.5-17.3-54.5-28.3c-16.1-11-29.3-26.5-39.7-46.5
		s-15.6-43.8-15.6-71.5c0-29.5,5.5-54.8,16.5-76.1s25.8-37.3,44.4-48c18.6-10.8,37.6-18.6,57.1-23.4c19.4-4.8,39.9-7.2,61.3-7.2
		c34.4,0,66.7,4.9,96.8,14.8c30.2,9.9,45.2,22.1,45.2,36.8c0,6.8-2.4,13.7-7.2,20.7c-4.8,7.1-10.6,10.6-17.3,10.6
		c-3.4,0-9.9-2.6-19.4-7.8c-9.6-5.2-23-10.4-40.2-15.6c-17.2-5.2-36.8-7.8-58.8-7.8c-35.5,0-64.8,7.6-87.9,22.8
		c-23.1,15.2-34.7,40.3-34.7,75.3c0,24.2,6.9,44.5,20.7,60.9s31.1,28.2,52,35.5s43.4,16.1,67.7,26.2c24.2,10.1,46.8,21,67.7,32.6
		c20.8,11.6,38.2,29.9,52,55s20.7,56,20.7,92.6c0,57.8-16.1,101.1-48.2,130s-75.6,43.3-130.2,43.3c-49,0-90.2-10.5-123.5-31.4
		C798.2,759.3,781.6,739.6,781.6,721.2z"/>
</g>
</svg>
