<?xml version="1.0" encoding="utf-8"?>
<!-- Generator: Adobe Illustrator 21.0.0, SVG Export Plug-In . SVG Version: 6.00 Build 0)  -->
<svg version="1.1" id="Layer_1" xmlns="http://www.w3.org/2000/svg" xmlns:xlink="http://www.w3.org/1999/xlink" x="0px" y="0px"
	 viewBox="0 0 1920 1080" style="enable-background:new 0 0 1920 1080;" xml:space="preserve">
<style type="text/css">
	.st0{fill:#252525;}
</style>
<g>
	<path class="st0" d="M1611.7,173.9l-25-16.1c-6.3-4.1-14.7-2.2-18.8,4.1l-214,332.5l47.9,30.8l214-332.5
		C1619.8,186.4,1618,178,1611.7,173.9z"/>
	<path class="st0" d="M893.7,722.8H329.3c-25.8,0-46.8-21-46.8-46.8v-66.4c0-25.8,21-46.8,46.8-46.8h564.4c25.8,0,46.8,21,46.8,46.8
		V676C940.5,701.9,919.5,722.8,893.7,722.8z"/>
	<path class="st0" d="M1604,481.3h-438.4c-18.5,0-33.5-15-33.5-33.5v-39.9c0-18.5,15-33.5,33.5-33.5H1604c18.5,0,33.5,15,33.5,33.5
		v39.9C1637.5,466.3,1622.5,481.3,1604,481.3z"/>
	<path class="st0" d="M840.3,898.3H383.7c-55.6,0-100.7-45.1-100.7-100.7v-59.3h658v59.3C941,853.2,895.9,898.3,840.3,898.3z"/>
	<path class="st0" d="M840.3,387.3H383.7C328.1,387.3,283,432.4,283,488v59.3h658V488C941,432.5,895.9,387.3,840.3,387.3z"/>
	<path class="st0" d="M1157.8,481.4l50.1,402.2c2.9,23.3,22.7,40.8,46.1,40.8h261.7c23.5,0,43.2-17.5,46.1-40.8l50.1-402.2"/>
</g>
</svg>
