<?xml version="1.0" encoding="utf-8"?>
<!-- Generator: Adobe Illustrator 21.0.0, SVG Export Plug-In . SVG Version: 6.00 Build 0)  -->
<svg version="1.1" id="Capa_1" xmlns="http://www.w3.org/2000/svg" xmlns:xlink="http://www.w3.org/1999/xlink" x="0px" y="0px"
	 viewBox="0 0 512 512" style="enable-background:new 0 0 512 512;" xml:space="preserve">
<style type="text/css">
	.st0{fill:#FFFFFF;}
</style>
<g>
	<path class="st0" d="M483.8,28.2C465.1,9.4,442.4,0,416,0H96C69.6,0,46.9,9.4,28.2,28.2C9.4,46.9,0,69.6,0,96v320
		c0,26.4,9.4,49.1,28.2,67.8C46.9,502.6,69.6,512,96,512h320c26.4,0,49.1-9.4,67.8-28.2c18.8-18.8,28.2-41.4,28.2-67.8V96
		C512,69.6,502.6,46.9,483.8,28.2z M391.7,197c0.2,2,0.3,5,0.3,9c0,18.7-2.7,37.4-8.2,56.2c-5.4,18.8-13.8,36.8-25,54
		c-11.2,17.2-24.6,32.4-40.2,45.7c-15.6,13.2-34.2,23.8-56,31.7c-21.8,7.9-45.1,11.8-70,11.8c-38.7,0-74.4-10.5-107.3-31.3
		c5.3,0.7,10.9,1,16.7,1c32.2,0,61.2-10,87-30c-15.1-0.2-28.6-4.9-40.5-14c-11.9-9.1-20.2-20.7-24.8-34.7c5.8,0.9,10.1,1.3,13,1.3
		c4.9,0,10.6-0.9,17-2.7c-16.2-3.1-29.9-11.2-41-24.2C101.6,257.8,96,243,96,226.3v-0.7c11.8,5.6,22.9,8.4,33.3,8.7
		C109.1,220.8,99,201.3,99,176c0-12.4,3.2-24.2,9.7-35.3c17.6,21.6,38.9,38.8,64,51.7c25.1,12.9,52,20.1,80.7,21.7
		c-1.1-4.2-1.7-9.6-1.7-16c0-19.3,6.8-35.8,20.5-49.5c13.7-13.7,30.2-20.5,49.5-20.5c20.4,0,37.5,7.3,51,22
		c15.3-2.9,30.2-8.6,44.7-17c-5.6,17.1-15.9,30.1-31,39c14.4-2,27.9-5.8,40.3-11.3C417.3,174.9,405.7,187,391.7,197z"/>
</g>
</svg>
